# xmcd
#
# Track frame offsets:
#	150
#	14599
#	30003
#	44088
#	73429
#	87257
#	102400
#	118215
#	132488
#	146381
#	160650
#	174315
#	185148
#	198628
#	213680
#	228648
#	244507
#	259688
#
# Disc length: 3792 seconds
#
# Revision: 0
# Processed by: cddbd v1.5.2PL0 Copyright (c) Steve Scherf et al.
# Submitted via: EasyCDDAExtractor 9.0.0.1
#
DISCID=0f0ece12
DTITLE=Count Basie - Coming Out Party
DYEAR=2005
DGENRE=Swing
TTITLE0=9:20 Special
TTITLE1=Goin To Chicago
TTITLE2=Fiesta In Blue
TTITLE3=King Joe, Parts
TTITLE4=Feather Merchant
TTITLE5=Harvard Blues
TTITLE6=Coming Out Party
TTITLE7=Basie Blues
TTITLE8=Im Gonna Move To The Outskirts Of Town
TTITLE9=Royal Garden Blues
TTITLE10=How Long Blues
TTITLE11=Bugle Blues
TTITLE12=Sugar Blues
TTITLE13=Farewell Blues
TTITLE14=Cafe Society Blues
TTITLE15=Way Back Blues
TTITLE16=St Louis Blues
TTITLE17=The World Is Mad, Parts 1 and 2
EXTD=
EXTT0=
EXTT1=
EXTT2=
EXTT3=
EXTT4=
EXTT5=
EXTT6=
EXTT7=
EXTT8=
EXTT9=
EXTT10=
EXTT11=
EXTT12=
EXTT13=
EXTT14=
EXTT15=
EXTT16=
EXTT17=
PLAYORDER=
